<svg xmlns="http://www.w3.org/2000/svg" width="960" height="380" viewBox="0 0 960 380">
  <path d="M264 66h448l28 28v216l-28 28H264l-28-28V94z" fill="#0e1218"/>
  <path d="M256 58h448l28 28v216l-28 28H256l-28-28V86z" fill="#9aa0ab"/>
  <path d="M266 72h428l16 16v196l-16 16H266l-16-16V88z" fill="#232833"/>
  <path d="M282 80h396v4H282z" fill="#3a4252"/>
  <path d="M352 90h212v182H352z" fill="#101418"/>
  <path d="M362 100h192v162H362z" fill="#3f7a72"/>
  <path d="M362 100h192v8H362zm0 0h8v162h-8z" fill="#24564f"/>
  <path d="M362 196h192v66H362z" fill="#2c5c48"/>
  <path d="M400 176h16v30h-16zm26-14h20v44h-20zm32 6h14v38h-14z" fill="#1a4038"/>
  <path d="M295 180h22v21h21v22h-21v21h-22v-21h-21v-22h21z" fill="#12161e"/>
  <path d="M297 182h18v19h19v18h-19v19h-18v-19h-19v-18h19z" fill="#3a404c"/>
  <path d="m306 190 4-6 4 6zm-18 18-6 4 6 4zm36 0 6 4-6 4zm-22 22 4 6 4-6z" fill="#d5d8de"/>
  <circle cx="306" cy="212" r="7" fill="#12161e"/>
  <g fill="#12161e"><circle cx="616" cy="222" r="20"/><circle cx="672" cy="222" r="20"/><circle cx="644" cy="166" r="13"/></g>
  <g fill="#4a5160" stroke="#8b919c" stroke-width="2"><circle cx="616" cy="218" r="18"/><circle cx="672" cy="218" r="18"/><circle cx="644" cy="162" r="11"/></g>
  <g fill="#f2f0ea" font-family="sans-serif" font-weight="bold" text-anchor="middle"><text x="616" y="224" font-size="16">1</text><text x="672" y="224" font-size="16">2</text></g>
  <g fill="#9aa0ab" font-family="sans-serif" font-size="8" text-anchor="middle"><text x="644" y="186">START</text></g>
  <path d="M258 168h14m-14 10h14m-14 10h14m-14 10h14m-14 10h14m-14 10h14" stroke="#9aa0ab" stroke-width="3"/>
</svg>
