<svg xmlns="http://www.w3.org/2000/svg" width="960" height="380" viewBox="0 0 960 380">
  <g fill="#575090" stroke="#8f86c4" stroke-width="3" stroke-linejoin="round">
    <path d="M227 109c13-44 38-73 84-80h41l4 18-45 4c-43 10-72 31-83 64z"/>
    <path d="M733 109c-13-44-38-73-84-80h-41l-4 18 45 4c43 10 72 31 83 64z"/>
  </g>
  <path d="M311 43h338a91 91 0 0 1 91 91v116a91 91 0 0 1-91 91H311a91 91 0 0 1-91-91V134a91 91 0 0 1 91-91z" fill="#241f3d"/>
  <path d="M311 44h338a87 87 0 0 1 87 87v117a87 87 0 0 1-87 87H311a87 87 0 0 1-87-87V131a87 87 0 0 1 87-87z" fill="#8278bd"/>
  <path d="M311 48h338a85 85 0 0 1 85 85v117a85 85 0 0 1-85 85H311a85 85 0 0 1-85-85V133a85 85 0 0 1 85-85z" fill="#6f65a8"/>
  <circle cx="284" cy="160" r="50" fill="#665c9e"/>
  <g fill="#665c9e"><circle cx="652" cy="178" r="25"/><circle cx="697" cy="151" r="25"/></g>
  <g fill="#e2ddf2" font-family="sans-serif" font-size="10" font-weight="bold" text-anchor="middle"><text x="327" y="41">L</text><text x="633" y="41">R</text></g>
  <path d="M359 60h242a13 13 0 0 1 13 13v170a13 13 0 0 1-13 13H359a13 13 0 0 1-13-13V73a13 13 0 0 1 13-13z" fill="#14161d"/>
  <path d="M371 85h218v146H371z" fill="#2c343b"/>
  <path d="M371 85h218v7H371zm0 0h7v146h-7z" fill="#1f262c"/>
  <circle cx="326" cy="85" r="5" fill="#8f2738"/>
  <circle cx="326" cy="84" r="3.5" fill="#dd4453"/>
  <path d="M271 120h32v27h27v32h-27v27h-32v-27h-27v-32h27z" fill="#211e33"/>
  <path d="M268 117h32v27h27v32h-27v27h-32v-27h-27v-32h27z" fill="#33304a"/>
  <path d="M268 117h32v5h-32zm-27 27h27v5h-27zm59 0h27v5h-27z" fill="#46425f"/>
  <path d="m284 126 9 14h-18zm0 68-9-14h18zm-34-34 14 9v-18zm68 0-14-9v18z" fill="#cfcbe2"/>
  <circle cx="284" cy="160" r="7" fill="#262338"/>
  <g fill="#332e4d"><circle cx="655" cy="181" r="19"/><circle cx="700" cy="154" r="19"/></g>
  <g fill="#cdc8de" stroke="#9f98bd" stroke-width="2"><circle cx="652" cy="178" r="18"/><circle cx="697" cy="151" r="18"/></g>
  <g fill="#2a2640" font-family="sans-serif" font-size="17" font-weight="bold" text-anchor="middle"><text x="652" y="184">B</text><text x="697" y="157">A</text></g>
  <g fill="#554e80" stroke="#9089c0" stroke-width="2"><path d="M448 275h28a7 7 0 0 1 0 14h-28a7 7 0 0 1 0-14z"/><path d="M509 275h28a7 7 0 0 1 0 14h-28a7 7 0 0 1 0-14z"/></g>
  <g fill="#cdc8e2" font-family="sans-serif" font-size="9" text-anchor="middle"><text x="462" y="305">SELECT</text><text x="523" y="305">START</text></g>
  <g stroke="#605899" stroke-width="1.8" stroke-linecap="round"><path d="M656 314l4-14m2 14l4-14m2 14l4-14m2 14l4-14m2 14l4-14m2 14l4-14m2 14l4-14m2 14l4-14"/></g>
</svg>
